<svg xmlns="http://www.w3.org/2000/svg" viewBox="3.299999952316284 21 84.14999389648438 35.70000076293945" data-asc="1.12" width="84.14999389648438" height="35.70000076293945"><defs/><g><g fill="#000000"><g transform="translate(0, 0)"><path d="M7.50 21.00L7.50 44.20Q7.50 48.45 9.47 50.63Q11.45 52.80 15.30 52.80Q19.15 52.80 21.13 50.63Q23.10 48.45 23.10 44.20L23.10 21.00L27.30 21.00L27.30 44.20Q27.30 50.30 24.10 53.50Q20.90 56.70 15.30 56.70Q9.70 56.70 6.50 53.50Q3.30 50.30 3.30 44.20L3.30 21.00L7.50 21.00ZM33.55 31.20L42.55 31.20L42.55 34.50L43.15 34.50Q44.10 32.45 45.85 31.48Q47.60 30.50 49.85 30.50Q53.60 30.50 55.90 32.95Q58.20 35.40 58.35 40.10L54.25 40.70Q54.25 37.25 52.60 35.73Q50.95 34.20 48.55 34.20Q47 34.20 45.88 34.80Q44.75 35.40 44 36.45Q43.25 37.50 42.90 38.90Q42.55 40.30 42.55 41.90L42.55 52.40L48.85 52.40L48.85 56.00L32.95 56.00L32.95 52.40L38.65 52.40L38.65 34.80L33.55 34.80L33.55 31.20ZM65.55 52.40L74.55 52.40L74.55 24.60L65.85 24.60L65.85 21.00L78.45 21.00L78.45 52.40L87.45 52.40L87.45 56.00L65.55 56.00L65.55 52.40Z"/></g></g></g></svg>